HIERARCHY
ROOT Hips
{
	OFFSET 0.000000 0.000000 0.000000
	CHANNELS 6 Xposition Yposition Zposition Zrotation Yrotation Xrotation
	JOINT LHipJoint
	{
		OFFSET 0.000000 0.000000 0.000000
		CHANNELS 3 Zrotation Yrotation Xrotation
		JOINT LeftUpLeg
		{
			OFFSET 1.363060 -1.794630 0.839290
			CHANNELS 3 Zrotation Yrotation Xrotation
			JOINT LeftLeg
			{
				OFFSET 2.448110 -6.726130 0.000000
				CHANNELS 3 Zrotation Yrotation Xrotation
				JOINT LeftFoot
				{
					OFFSET 2.562200 -7.039590 0.000000
					CHANNELS 3 Zrotation Yrotation Xrotation
					JOINT LeftToeBase
					{
						OFFSET 0.157640 -0.433110 2.322550
						CHANNELS 3 Zrotation Yrotation Xrotation
						End Site
						{
							OFFSET 0.000000 0.000000 0.000000
						}
					}
				}
			}
		}
	}
	JOINT RHipJoint
	{
		OFFSET 0.000000 0.000000 0.000000
		CHANNELS 3 Zrotation Yrotation Xrotation
		JOINT RightUpLeg
		{
			OFFSET -1.305520 -1.794630 0.839290
			CHANNELS 3 Zrotation Yrotation Xrotation
			JOINT RightLeg
			{
				OFFSET -2.542530 -6.985550 0.000000
				CHANNELS 3 Zrotation Yrotation Xrotation
				JOINT RightFoot
				{
					OFFSET -2.568260 -7.056230 0.000000
					CHANNELS 3 Zrotation Yrotation Xrotation
					JOINT RightToeBase
					{
						OFFSET -0.164730 -0.452590 2.363150
						CHANNELS 3 Zrotation Yrotation Xrotation
						End Site
						{
							OFFSET 0.000000 0.000000 0.000000
						}
					}
				}
			}
		}
	}
	JOINT LowerBack
	{
		OFFSET 0.000000 0.000000 0.000000
		CHANNELS 3 Zrotation Yrotation Xrotation
		JOINT Spine
		{
			OFFSET 0.028270 2.035590 -0.193380
			CHANNELS 3 Zrotation Yrotation Xrotation
			JOINT Spine1
			{
				OFFSET 0.056720 2.048850 -0.042750
				CHANNELS 3 Zrotation Yrotation Xrotation
				JOINT Neck
				{
					OFFSET 0.000000 0.000000 0.000000
					CHANNELS 3 Zrotation Yrotation Xrotation
					JOINT Neck1
					{
						OFFSET -0.054170 1.746240 0.172020
						CHANNELS 3 Zrotation Yrotation Xrotation
						JOINT Head
						{
							OFFSET 0.104070 1.761360 -0.123970
							CHANNELS 3 Zrotation Yrotation Xrotation
							End Site
							{
								OFFSET 0.000000 0.000000 0.000000
							}
						}
					}
				}
				JOINT LeftShoulder
				{
					OFFSET 0.000000 0.000000 0.000000
					CHANNELS 3 Zrotation Yrotation Xrotation
					JOINT LeftArm
					{
						OFFSET 3.362410 1.200890 -0.311210
						CHANNELS 3 Zrotation Yrotation Xrotation
						JOINT LeftForeArm
						{
							OFFSET 4.983000 -0.000000 -0.000000
							CHANNELS 3 Zrotation Yrotation Xrotation
							JOINT LeftHand
							{
								OFFSET 3.483560 -0.000000 -0.000000
								CHANNELS 3 Zrotation Yrotation Xrotation
								JOINT LeftFingerBase
								{
									OFFSET 0.000000 0.000000 0.000000
									CHANNELS 3 Zrotation Yrotation Xrotation
									JOINT LeftHandIndex1
									{
										OFFSET 0.715260 -0.000000 -0.000000
										CHANNELS 3 Zrotation Yrotation Xrotation
										End Site
										{
											OFFSET 0.000000 0.000000 0.000000
										}
									}
								}
								JOINT LThumb
								{
									OFFSET 0.000000 0.000000 0.000000
									CHANNELS 3 Zrotation Yrotation Xrotation
									End Site
									{
										OFFSET 0.000000 0.000000 0.000000
									}
								}
							}
						}
					}
				}
				JOINT RightShoulder
				{
					OFFSET 0.000000 0.000000 0.000000
					CHANNELS 3 Zrotation Yrotation Xrotation
					JOINT RightArm
					{
						OFFSET -3.136600 1.374050 -0.404650
						CHANNELS 3 Zrotation Yrotation Xrotation
						JOINT RightForeArm
						{
							OFFSET -5.241900 -0.000000 -0.000000
							CHANNELS 3 Zrotation Yrotation Xrotation
							JOINT RightHand
							{
								OFFSET -3.444170 -0.000000 -0.000000
								CHANNELS 3 Zrotation Yrotation Xrotation
								JOINT RightFingerBase
								{
									OFFSET 0.000000 0.000000 0.000000
									CHANNELS 3 Zrotation Yrotation Xrotation
									JOINT RightHandIndex1
									{
										OFFSET -0.622530 -0.000000 -0.000000
										CHANNELS 3 Zrotation Yrotation Xrotation
										End Site
										{
											OFFSET 0.000000 0.000000 0.000000
										}
									}
								}
								JOINT RThumb
								{
									OFFSET 0.000000 0.000000 0.000000
									CHANNELS 3 Zrotation Yrotation Xrotation
									End Site
									{
										OFFSET 0.000000 0.000000 0.000000
									}
								}
							}
						}
					}
				}
			}
		}
	}
}
MOTION
Frames: 8
Frame Time: 0.008333
-0.001259 0.001119 0.077216 0.043928 -0.227077 0.040384 -0.076756 -0.036542 -0.043055 0.120518 0.000581 0.155329 -0.309819 -0.433328 -1.421168 -0.015716 0.160360 0.948633 -0.015686 0.048423 0.141517 0.035826 -0.002013 -0.001246 -0.072652 -0.005521 0.541990 0.072448 0.173454 -0.462370 0.009003 -0.003947 0.135048 0.001432 0.014322 -0.039693 -0.009448 0.092227 0.203008 -0.130802 0.125825 -0.075386 -0.007957 0.061336 -0.103059 -0.018162 -0.019357 -0.084858 0.184633 -0.040739 0.043332 0.069428 0.003751 0.040307 0.007621 0.018324 0.006154 0.001994 0.105573 -0.108838 0.063824 -0.088980 -0.031241 0.007096 -0.004816 -0.042244 -0.032031 -0.190603 -0.098209 0.000000 0.000000 0.000000 -0.053333 -0.205830 0.028985 0.008106 0.004625 0.004838 0.053348 0.119543 0.057712 -0.087218 0.098360 -0.040214 -0.003696 0.003585 0.112791 0.071993 -0.045473 -0.038738 -0.000000 0.000000 0.000000 0.256844 -0.023597 -0.202488
-0.655297 0.718621 1.232748 0.808669 0.047011 -0.274892 -0.040898 -0.392580 -0.524365 -2.069026 -1.216127 -5.721970 -1.025099 -0.155784 0.432505 0.649375 2.984596 3.711526 0.195803 1.984173 7.904389 3.135648 1.515985 2.689643 9.023566 3.634696 4.451202 0.783865 0.914900 -1.035930 -0.570357 1.303567 5.166273 0.851281 3.504328 3.591246 -0.083008 0.618343 -0.135996 -0.291290 -0.006634 3.107969 2.218470 1.631368 8.141352 3.848897 3.195788 6.405893 3.028137 3.807364 5.351258 1.158501 0.560206 1.411858 0.667414 0.719197 -0.098147 4.201896 2.852178 7.172627 2.703055 4.799979 1.041248 0.482678 0.968406 8.702259 4.255298 5.726284 4.493257 1.020494 0.000000 0.000000 17.390007 27.287853 27.564009 4.794937 3.116305 0.591601 9.899998 3.976785 7.569790 8.122731 7.806700 6.484561 0.785894 0.961356 9.931928 50.286957 23.871708 30.168297 0.945856 0.000000 0.000000 17.216171 7.033867 3.193491
-2.714348 -0.003304 -5.727293 1.109699 0.660998 0.737392 1.968523 0.542897 0.569272 -0.438114 0.152003 -11.116241 -1.583791 0.672259 3.365397 1.362197 5.945480 6.171648 0.519547 3.587790 13.676062 3.003415 1.155648 1.876376 6.373338 1.395396 1.364321 0.205349 -0.316950 -8.461926 -2.441120 -1.718308 5.087362 1.133469 5.363495 4.630556 -0.398092 0.961291 -2.658488 -0.757378 -0.371771 6.494155 4.823665 3.226262 15.597810 6.667484 5.815221 10.565708 4.158214 5.544074 7.833269 0.927594 -0.422758 -2.597806 -4.702455 -2.652582 -1.152066 -16.804281 -4.055518 -15.913705 -2.301953 2.330021 0.092355 0.128065 0.384618 -6.676822 -3.921613 -5.301330 0.295365 0.190038 0.000000 0.000000 -2.124136 27.178507 33.135986 7.832538 4.353681 0.450147 7.467063 3.095860 7.637391 12.946297 15.748322 14.103569 1.784132 1.855351 20.367249 102.023720 49.972939 67.162781 2.134911 0.000000 0.000000 49.479527 22.817635 29.078398
-5.088916 -1.398011 -14.378347 1.000499 0.508763 1.428819 4.767696 2.004070 2.351299 3.881787 3.931124 -12.877001 -1.319150 3.009668 10.865118 2.754527 11.277578 10.723656 1.332193 7.546309 26.887520 5.495171 1.219756 1.479062 3.197777 -0.570716 -2.805894 -0.627796 -1.948189 -14.040695 -3.268465 -2.543620 5.715471 1.645990 7.788824 8.363531 0.516596 1.364496 -5.267975 -1.499854 -1.217314 9.917680 7.578709 4.773346 22.645649 9.083399 8.235168 14.554672 4.569026 6.972071 11.644225 1.780082 -0.507927 -4.378511 -8.057857 -4.499146 -1.867278 -34.467903 -9.427172 -32.900120 -6.203596 0.134115 -1.132499 -0.200947 0.237771 -18.381435 -10.027886 -11.195663 -0.811691 0.048810 0.000000 0.000000 -17.787331 26.407202 39.619385 10.988243 5.390036 0.483709 4.227050 1.033402 7.835108 19.340088 27.961628 21.670525 2.822681 2.647421 29.437363 152.691498 73.017326 101.617828 3.483799 0.000000 0.000000 72.237671 26.939453 35.372623
-5.687333 -1.400371 -18.461874 2.220479 3.126745 5.962399 11.438688 5.186228 5.023023 10.092834 8.252994 -16.446924 -1.710424 5.246370 15.903519 3.336003 16.180941 16.367693 2.605488 12.150748 44.171989 11.362983 2.932020 5.412427 11.735334 1.424176 0.306628 -0.130004 -1.736411 -15.524083 -3.356570 0.880519 6.676017 1.780840 9.224001 9.911431 0.278262 1.304297 -8.089602 -2.514741 -2.151939 13.048474 9.754631 6.485322 30.803053 12.885519 12.302755 21.558359 6.085928 9.361481 16.641937 2.528645 -0.649487 -5.094288 -11.536705 -5.684783 -2.325294 -47.446301 -13.000153 -48.960835 -10.707727 -3.969129 -2.461635 -0.573999 0.232440 -24.364727 -11.432057 -7.921160 -0.130379 0.386543 0.000000 0.000000 -37.959473 12.447410 29.764956 11.791359 5.549454 0.103245 -8.363197 -3.436226 6.008688 23.808710 37.593948 28.905014 3.750506 3.290730 37.185036 164.663834 78.868027 113.652222 4.080991 0.000000 0.000000 35.375168 -3.857262 -23.561378
-5.539744 -1.167284 -20.446243 4.541973 6.311209 11.352683 18.692410 8.506977 7.848311 16.878216 11.819770 -22.991978 -2.543674 6.195650 16.783394 3.952212 22.408510 25.488605 4.187309 17.170710 61.149521 16.665003 4.744976 8.297296 17.152491 2.190532 1.723765 0.702369 -0.385147 -15.660497 -3.248738 7.381460 12.065987 2.723525 13.358240 22.433918 2.491639 2.286108 -8.268284 -3.769094 -2.994459 17.400063 12.789804 8.282186 39.594433 20.180565 19.026762 33.143318 10.192978 14.341290 25.568409 7.253627 1.380901 -1.889786 -10.826380 -2.710280 -1.677759 -34.837715 -8.047079 -46.953281 -10.085330 1.289995 -2.365920 -0.827049 0.245437 -30.956985 -10.418180 6.704778 7.410408 2.115730 0.000000 0.000000 -8.564703 51.480339 73.130127 19.267033 10.713127 1.724390 11.789423 7.224218 24.004580 44.937428 61.806946 45.138443 5.893738 5.180718 54.002235 239.382385 102.483711 158.687119 5.539919 0.000000 0.000000 10.286638 -21.058859 -37.251190
-5.520590 -0.696598 -20.533314 6.714847 9.098777 16.618338 25.291418 11.195101 10.207955 21.190807 11.996538 -27.761019 -2.977446 7.949760 19.618559 4.334634 27.887180 34.557083 5.995927 22.911684 81.459091 22.691097 6.713997 11.160511 21.502258 -0.357658 -2.521569 0.508407 -1.029966 -20.629175 -4.624811 11.411091 13.011325 3.375411 16.919405 28.204784 1.589202 1.462783 -14.043549 -7.000556 -5.722100 18.698162 13.637537 8.191097 42.725578 26.204226 25.377674 46.526894 15.061802 20.124813 35.815536 12.561354 3.538748 2.692234 -7.392646 1.442000 -0.979870 -27.535225 -4.009881 -43.898643 -10.208636 4.930890 -2.608247 -1.125259 0.269029 -35.361214 -5.299641 20.529236 13.313879 3.248538 0.000000 0.000000 3.051242 55.818581 82.603516 20.418396 11.932571 1.974819 15.617903 15.131634 38.312386 63.120647 80.217400 55.938576 7.336577 6.272433 62.307335 271.304077 103.084976 175.611969 6.149322 0.000000 0.000000 -63.284492 -57.556702 -103.989594
-5.543280 -0.392146 -22.186281 8.516153 11.740210 21.637384 30.959511 13.720170 13.098872 25.777433 11.177945 -31.157228 -3.039703 10.064378 21.696156 4.702632 32.187302 40.476601 7.597353 24.992607 88.831070 24.768454 7.094737 13.380346 25.479481 -1.868252 -2.742563 1.005973 -0.817499 -25.659018 -6.213105 14.937903 11.922773 3.940012 19.817408 34.566628 1.565055 1.685249 -17.081326 -9.792683 -7.968811 19.516788 14.488053 8.249484 46.215580 32.304359 32.138737 59.068489 19.799120 25.007626 43.319820 16.812717 4.754781 7.109396 -3.392231 4.866903 -0.270890 -17.353947 1.046852 -38.935627 -8.772297 7.963299 -2.947283 -1.397566 -0.176375 -40.989159 0.341368 32.064671 17.809326 3.863057 0.000000 0.000000 8.133400 53.029003 77.649536 20.057474 12.565646 1.462880 9.350469 21.998499 52.284748 81.400833 97.882111 67.538094 8.993027 7.399993 70.855820 295.706512 99.074677 187.529602 6.517979 0.000000 0.000000 -117.514145 -88.432831 -167.959854
